<svg width="50" height="50" viewBox="0 0 50 50" fill="none" xmlns="http://www.w3.org/2000/svg">
<path d="M0 0V50H1.10463V0H0Z" fill="#005b49"/>
<path fill-rule="evenodd" clip-rule="evenodd" d="M7.12662 12.9584C7.61266 13.2334 8.16056 13.3709 8.77031 13.3709C9.43309 13.3709 10.0252 13.2201 10.5466 12.9185C11.0768 12.617 11.4921 12.2001 11.7926 11.6679C12.093 11.1269 12.2433 10.506 12.2433 9.8053C12.2433 9.09574 12.093 8.47487 11.7926 7.94269C11.4921 7.41052 11.0768 6.99809 10.5466 6.70539C10.0252 6.40383 9.43309 6.25304 8.77031 6.25304C8.16939 6.25304 7.62592 6.39052 7.13988 6.66548C6.73079 6.89691 6.39056 7.21944 6.1192 7.63309V3.43252H5.17805V13.3043H6.07943V11.9204C6.34977 12.3626 6.69883 12.7086 7.12662 12.9584ZM10.0296 12.2001C9.64076 12.4218 9.19891 12.5327 8.70404 12.5327C8.20916 12.5327 7.76289 12.4218 7.36522 12.2001C6.97639 11.9695 6.6671 11.6502 6.43733 11.2422C6.21641 10.8253 6.10594 10.3463 6.10594 9.8053C6.10594 9.25539 6.21641 8.77643 6.43733 8.36843C6.6671 7.96043 6.97639 7.64556 7.36522 7.42383C7.76289 7.19322 8.20916 7.07791 8.70404 7.07791C9.19891 7.07791 9.64076 7.19322 10.0296 7.42383C10.4184 7.64556 10.7277 7.96043 10.9575 8.36843C11.1872 8.77643 11.3021 9.25539 11.3021 9.8053C11.3021 10.3463 11.1872 10.8253 10.9575 11.2422C10.7277 11.6502 10.4184 11.9695 10.0296 12.2001Z" fill="#005b49"/>
<path fill-rule="evenodd" clip-rule="evenodd" d="M15.209 12.9185C15.7569 13.2201 16.3932 13.3709 17.1178 13.3709C17.6745 13.3709 18.1827 13.2733 18.6422 13.0782C19.1106 12.883 19.4994 12.5992 19.8087 12.2267L19.2785 11.6147C19.0133 11.9251 18.6952 12.1557 18.3241 12.3065C17.9617 12.4573 17.5685 12.5327 17.1443 12.5327C16.6053 12.5327 16.1236 12.4218 15.6995 12.2001C15.2841 11.9695 14.9571 11.6546 14.7185 11.2555C14.5259 10.9133 14.414 10.5275 14.3829 10.098H20.2329V9.95165C20.2417 9.89843 20.2461 9.84965 20.2461 9.8053C20.2461 9.10461 20.1003 8.48817 19.8087 7.956C19.5171 7.41496 19.115 6.99809 18.6024 6.70539C18.0987 6.40383 17.5199 6.25304 16.8659 6.25304C16.2208 6.25304 15.6376 6.40826 15.1162 6.71869C14.6037 7.02026 14.1972 7.43713 13.8967 7.9693C13.6051 8.50148 13.4593 9.11348 13.4593 9.8053C13.4593 10.4971 13.6139 11.1136 13.9232 11.6546C14.2325 12.1868 14.6611 12.6081 15.209 12.9185ZM14.387 9.39287C14.4213 9.00146 14.523 8.64667 14.692 8.32852C14.9041 7.92939 15.2002 7.61896 15.5802 7.39722C15.9601 7.17548 16.3887 7.06461 16.8659 7.06461C17.352 7.06461 17.7806 7.17548 18.1517 7.39722C18.5229 7.61896 18.8145 7.92939 19.0266 8.32852C19.2059 8.64531 19.3125 9.0001 19.3462 9.39287H14.387Z" fill="#005b49"/>
<path d="M27.1989 6.58565C26.7747 6.36391 26.2798 6.25304 25.7142 6.25304C25.0426 6.25304 24.4638 6.39939 23.9778 6.69209C23.6104 6.9066 23.3188 7.18444 23.1029 7.52561V3.43252H22.1618V13.3043H23.1029V9.63235C23.1029 9.10017 23.2001 8.64783 23.3945 8.2753C23.5978 7.89391 23.8806 7.60565 24.2429 7.41052C24.614 7.20652 25.047 7.10452 25.5419 7.10452C26.2047 7.10452 26.7172 7.29522 27.0796 7.67661C27.4507 8.04913 27.6363 8.60348 27.6363 9.33965V13.3043H28.5774V9.24652C28.5774 8.57243 28.4537 8.01365 28.2063 7.57017C27.9677 7.12669 27.6319 6.79852 27.1989 6.58565Z" fill="#005b49"/>
<path d="M31.1196 6.31956V13.3043H32.0608V6.31956H31.1196Z" fill="#005b49"/>
<path d="M31.1064 4.5767C31.2389 4.70974 31.4024 4.77626 31.5968 4.77626C31.8001 4.77626 31.9636 4.70974 32.0873 4.5767C32.2198 4.44365 32.2861 4.27957 32.2861 4.08443C32.2861 3.89817 32.2198 3.74296 32.0873 3.61878C31.9547 3.49461 31.7912 3.43252 31.5968 3.43252C31.4024 3.43252 31.2389 3.49904 31.1064 3.63209C30.9738 3.75626 30.9075 3.91148 30.9075 4.09774C30.9075 4.284 30.9738 4.44365 31.1064 4.5767Z" fill="#005b49"/>
<path d="M39.7166 6.58565C39.2924 6.36391 38.7975 6.25304 38.232 6.25304C37.5603 6.25304 36.9815 6.39939 36.4955 6.69209C36.1051 6.92006 35.8002 7.21957 35.5808 7.59061V6.31956H34.6795V13.3043H35.6206V9.63235C35.6206 9.10017 35.7178 8.64783 35.9122 8.2753C36.1155 7.89391 36.3983 7.60565 36.7606 7.41052C37.1317 7.20652 37.5648 7.10452 38.0596 7.10452C38.7224 7.10452 39.235 7.29522 39.5973 7.67661C39.9684 8.04913 40.154 8.60348 40.154 9.33965V13.3043H41.0952V9.24652C41.0952 8.57243 40.9714 8.01365 40.724 7.57017C40.4854 7.12669 40.1496 6.79852 39.7166 6.58565Z" fill="#005b49"/>
<path fill-rule="evenodd" clip-rule="evenodd" d="M44.6182 12.9185C45.1485 13.2201 45.745 13.3709 46.4077 13.3709C47.0263 13.3709 47.5742 13.2334 48.0514 12.9584C48.4792 12.7086 48.8283 12.3626 49.0986 11.9204V13.3043H50V3.43252H49.0589V7.64783C48.7923 7.2271 48.4521 6.89965 48.0382 6.66548C47.561 6.39052 47.0175 6.25304 46.4077 6.25304C45.745 6.25304 45.1485 6.40383 44.6182 6.70539C44.0969 6.99809 43.6859 7.41052 43.3855 7.94269C43.085 8.47487 42.9348 9.09574 42.9348 9.8053C42.9348 10.506 43.085 11.1269 43.3855 11.6679C43.6859 12.2001 44.0969 12.617 44.6182 12.9185ZM47.7996 12.2001C47.4107 12.4218 46.9689 12.5327 46.474 12.5327C45.988 12.5327 45.5505 12.4218 45.1617 12.2001C44.7729 11.9695 44.4636 11.6502 44.2338 11.2422C44.0041 10.8253 43.8892 10.3463 43.8892 9.8053C43.8892 9.25539 44.0041 8.77643 44.2338 8.36843C44.4636 7.96043 44.7729 7.64556 45.1617 7.42383C45.5505 7.19322 45.988 7.07791 46.474 7.07791C46.9689 7.07791 47.4107 7.19322 47.7996 7.42383C48.1972 7.64556 48.5065 7.96043 48.7275 8.36843C48.9572 8.77643 49.0721 9.25539 49.0721 9.8053C49.0721 10.3463 48.9572 10.8253 48.7275 11.2422C48.5065 11.6502 48.1972 11.9695 47.7996 12.2001Z" fill="#005b49"/>
<path fill-rule="evenodd" clip-rule="evenodd" d="M6.31803 32.303C6.90128 32.4892 7.51103 32.5823 8.1473 32.5823C9.29612 32.5823 10.1621 32.2985 10.7454 31.7309C11.3375 31.1721 11.6335 30.2896 11.6335 29.0833V22.95H10.7321V24.2621C10.4517 23.8311 10.0894 23.5002 9.64518 23.2693C9.15031 23.0121 8.59357 22.8835 7.97498 22.8835C7.3122 22.8835 6.7157 23.0254 6.18548 23.3092C5.65525 23.593 5.23549 23.9922 4.9262 24.5066C4.62574 25.0122 4.47551 25.5976 4.47551 26.2628C4.47551 26.928 4.62574 27.5178 4.9262 28.0323C5.23549 28.5467 5.65525 28.9503 6.18548 29.243C6.7157 29.5268 7.3122 29.6687 7.97498 29.6687C8.59357 29.6687 9.15031 29.5357 9.64518 29.2696C10.0687 29.0419 10.4177 28.7265 10.6924 28.3234V29.203C10.6924 30.0723 10.4847 30.7109 10.0694 31.1189C9.65402 31.5357 9.00449 31.7442 8.12079 31.7442C7.58173 31.7442 7.06918 31.6555 6.58314 31.4781C6.10594 31.3096 5.70386 31.079 5.37689 30.7863L4.89969 31.5047C5.26201 31.8506 5.73479 32.1167 6.31803 32.303ZM9.43309 28.5112C9.03542 28.7241 8.58032 28.8305 8.06777 28.8305C7.56406 28.8305 7.10895 28.7241 6.70244 28.5112C6.30478 28.2895 5.99106 27.9879 5.7613 27.6065C5.54037 27.2163 5.42991 26.7683 5.42991 26.2628C5.42991 25.7572 5.54037 25.3137 5.7613 24.9323C5.99106 24.551 6.30478 24.2538 6.70244 24.041C7.10895 23.8192 7.56406 23.7083 8.06777 23.7083C8.58032 23.7083 9.03542 23.8192 9.43309 24.041C9.83076 24.2538 10.1445 24.551 10.3742 24.9323C10.604 25.3137 10.7189 25.7572 10.7189 26.2628C10.7189 26.7683 10.604 27.2163 10.3742 27.6065C10.1445 27.9879 9.83076 28.2895 9.43309 28.5112Z" fill="#005b49"/>
<path d="M14.2524 22.95V29.9348H15.1936V26.3692C15.1936 25.5443 15.4012 24.9102 15.8166 24.4667C16.2319 24.0143 16.8063 23.7882 17.5398 23.7882C17.5752 23.7882 17.6105 23.7926 17.6458 23.8015H17.7519V22.8835C17.0714 22.8835 16.5015 23.0254 16.0419 23.3092C15.6489 23.5444 15.3529 23.8736 15.1538 24.2968V22.95H14.2524Z" fill="#005b49"/>
<path fill-rule="evenodd" clip-rule="evenodd" d="M20.4517 29.549C20.9996 29.8505 21.6358 30.0013 22.3605 30.0013C22.9172 30.0013 23.4253 29.9037 23.8849 29.7086C24.3532 29.5135 24.7421 29.2297 25.0514 28.8571L24.5211 28.2451C24.256 28.5556 23.9379 28.7862 23.5667 28.937C23.2044 29.0877 22.8112 29.1631 22.387 29.1631C21.8479 29.1631 21.3663 29.0523 20.9421 28.8305C20.5268 28.5999 20.1998 28.285 19.9612 27.8859C19.7685 27.5438 19.6566 27.1579 19.6256 26.7284H25.4755V26.5821C25.4844 26.5289 25.4888 26.4801 25.4888 26.4357C25.4888 25.735 25.343 25.1186 25.0514 24.5864C24.7597 24.0454 24.3577 23.6285 23.8451 23.3358C23.3414 23.0343 22.7626 22.8835 22.1086 22.8835C21.4635 22.8835 20.8803 23.0387 20.3589 23.3491C19.8463 23.6507 19.4398 24.0676 19.1394 24.5997C18.8478 25.1319 18.7019 25.7439 18.7019 26.4357C18.7019 27.1276 18.8566 27.744 19.1659 28.285C19.4752 28.8172 19.9038 29.2385 20.4517 29.549ZM19.6297 26.0233C19.664 25.6319 19.7657 25.2771 19.9347 24.959C20.1468 24.5598 20.4428 24.2494 20.8228 24.0277C21.2028 23.8059 21.6314 23.695 22.1086 23.695C22.5947 23.695 23.0233 23.8059 23.3944 24.0277C23.7656 24.2494 24.0572 24.5598 24.2693 24.959C24.4486 25.2757 24.5552 25.6305 24.5889 26.0233H19.6297Z" fill="#005b49"/>
<path fill-rule="evenodd" clip-rule="evenodd" d="M28.4516 29.549C28.9995 29.8505 29.6358 30.0013 30.3604 30.0013C30.9172 30.0013 31.4253 29.9037 31.8848 29.7086C32.3532 29.5135 32.742 29.2297 33.0513 28.8571L32.5211 28.2451C32.256 28.5556 31.9378 28.7862 31.5667 28.937C31.2044 29.0877 30.8111 29.1631 30.3869 29.1631C29.8479 29.1631 29.3663 29.0523 28.9421 28.8305C28.5267 28.5999 28.1998 28.285 27.9612 27.8859C27.7685 27.5438 27.6566 27.1579 27.6255 26.7284H33.4755V26.5821C33.4843 26.5289 33.4887 26.4801 33.4887 26.4357C33.4887 25.735 33.3429 25.1186 33.0513 24.5864C32.7597 24.0454 32.3576 23.6285 31.845 23.3358C31.3413 23.0343 30.7625 22.8835 30.1086 22.8835C29.4635 22.8835 28.8802 23.0387 28.3588 23.3491C27.8463 23.6507 27.4398 24.0676 27.1393 24.5997C26.8477 25.1319 26.7019 25.7439 26.7019 26.4357C26.7019 27.1276 26.8565 27.744 27.1658 28.285C27.4751 28.8172 27.9037 29.2385 28.4516 29.549ZM27.6296 26.0233C27.6639 25.6319 27.7656 25.2771 27.9347 24.959C28.1467 24.5598 28.4428 24.2494 28.8228 24.0277C29.2028 23.8059 29.6314 23.695 30.1086 23.695C30.5946 23.695 31.0232 23.8059 31.3944 24.0277C31.7655 24.2494 32.0571 24.5598 32.2692 24.959C32.4486 25.2757 32.5551 25.6305 32.5889 26.0233H27.6296Z" fill="#005b49"/>
<path d="M40.4415 23.2161C40.0173 22.9943 39.5224 22.8835 38.9569 22.8835C38.2853 22.8835 37.7064 23.0298 37.2204 23.3225C36.83 23.5505 36.5251 23.85 36.3058 24.221V22.95H35.4044V29.9348H36.3455V26.2628C36.3455 25.7306 36.4427 25.2783 36.6371 24.9057C36.8404 24.5243 37.1232 24.2361 37.4855 24.041C37.8567 23.837 38.2897 23.735 38.7845 23.735C39.4473 23.735 39.9599 23.9257 40.3222 24.307C40.6933 24.6796 40.8789 25.2339 40.8789 25.9701V29.9348H41.8201V25.877C41.8201 25.2029 41.6963 24.6441 41.4489 24.2006C41.2103 23.7571 40.8745 23.429 40.4415 23.2161Z" fill="#005b49"/>
<path fill-rule="evenodd" clip-rule="evenodd" d="M6.15897 46.1794C6.68919 46.481 7.28569 46.6317 7.94847 46.6317C8.56706 46.6317 9.11496 46.4943 9.59216 46.2193C10.0199 45.9695 10.369 45.6235 10.6393 45.1813V46.5652H11.5407V36.6934H10.5996V40.9087C10.3331 40.488 9.99284 40.1605 9.5789 39.9263C9.1017 39.6514 8.55822 39.5139 7.94847 39.5139C7.28569 39.5139 6.68919 39.6647 6.15897 39.9663C5.63758 40.259 5.22666 40.6714 4.9262 41.2036C4.62574 41.7357 4.47551 42.3566 4.47551 43.0662C4.47551 43.7669 4.62574 44.3877 4.9262 44.9288C5.22666 45.461 5.63758 45.8778 6.15897 46.1794ZM9.3403 45.461C8.95147 45.6827 8.50962 45.7936 8.01475 45.7936C7.52871 45.7936 7.09127 45.6827 6.70244 45.461C6.31361 45.2303 6.00432 44.911 5.77455 44.503C5.54479 44.0862 5.42991 43.6072 5.42991 43.0662C5.42991 42.5163 5.54479 42.0373 5.77455 41.6293C6.00432 41.2213 6.31361 40.9064 6.70244 40.6847C7.09127 40.4541 7.52871 40.3388 8.01475 40.3388C8.50962 40.3388 8.95147 40.4541 9.3403 40.6847C9.73797 40.9064 10.0473 41.2213 10.2682 41.6293C10.498 42.0373 10.6128 42.5163 10.6128 43.0662C10.6128 43.6072 10.498 44.0862 10.2682 44.503C10.0473 44.911 9.73797 45.2303 9.3403 45.461Z" fill="#005b49"/>
<path fill-rule="evenodd" clip-rule="evenodd" d="M15.1825 46.1794C15.7215 46.481 16.3269 46.6317 16.9985 46.6317C17.679 46.6317 18.2887 46.481 18.8278 46.1794C19.3668 45.869 19.7866 45.4477 20.087 44.9155C20.3963 44.3744 20.551 43.758 20.551 43.0662C20.551 42.3655 20.3963 41.749 20.087 41.2169C19.7866 40.6847 19.3668 40.2678 18.8278 39.9663C18.2975 39.6647 17.6878 39.5139 16.9985 39.5139C16.318 39.5139 15.7127 39.6647 15.1825 39.9663C14.6523 40.2678 14.2325 40.6847 13.9232 41.2169C13.6139 41.749 13.4593 42.3655 13.4593 43.0662C13.4593 43.758 13.6139 44.3744 13.9232 44.9155C14.2325 45.4477 14.6523 45.869 15.1825 46.1794ZM18.3373 45.461C17.9485 45.6827 17.5022 45.7936 16.9985 45.7936C16.5125 45.7936 16.075 45.6827 15.6862 45.461C15.2974 45.2303 14.9881 44.911 14.7583 44.503C14.5285 44.0862 14.4137 43.6072 14.4137 43.0662C14.4137 42.5163 14.5285 42.0373 14.7583 41.6293C14.9881 41.2213 15.2974 40.9064 15.6862 40.6847C16.075 40.4541 16.5169 40.3388 17.0118 40.3388C17.5066 40.3388 17.9485 40.4541 18.3373 40.6847C18.7261 40.9064 19.031 41.2213 19.2519 41.6293C19.4817 42.0373 19.5966 42.5163 19.5966 43.0662C19.5966 43.6072 19.4817 44.0862 19.2519 44.503C19.031 44.911 18.7261 45.2303 18.3373 45.461Z" fill="#005b49"/>
<path fill-rule="evenodd" clip-rule="evenodd" d="M23.4931 46.1794C24.0322 46.481 24.6375 46.6317 25.3091 46.6317C25.9896 46.6317 26.5993 46.481 27.1384 46.1794C27.6774 45.869 28.0972 45.4477 28.3977 44.9155C28.707 44.3744 28.8616 43.758 28.8616 43.0662C28.8616 42.3655 28.707 41.749 28.3977 41.2169C28.0972 40.6847 27.6774 40.2678 27.1384 39.9663C26.6082 39.6647 25.9984 39.5139 25.3091 39.5139C24.6287 39.5139 24.0233 39.6647 23.4931 39.9663C22.9629 40.2678 22.5431 40.6847 22.2338 41.2169C21.9245 41.749 21.7699 42.3655 21.7699 43.0662C21.7699 43.758 21.9245 44.3744 22.2338 44.9155C22.5431 45.4477 22.9629 45.869 23.4931 46.1794ZM26.6479 45.461C26.2591 45.6827 25.8128 45.7936 25.3091 45.7936C24.8231 45.7936 24.3856 45.6827 23.9968 45.461C23.608 45.2303 23.2987 44.911 23.0689 44.503C22.8392 44.0862 22.7243 43.6072 22.7243 43.0662C22.7243 42.5163 22.8392 42.0373 23.0689 41.6293C23.2987 41.2213 23.608 40.9064 23.9968 40.6847C24.3856 40.4541 24.8275 40.3388 25.3224 40.3388C25.8172 40.3388 26.2591 40.4541 26.6479 40.6847C27.0368 40.9064 27.3416 41.2213 27.5626 41.6293C27.7923 42.0373 27.9072 42.5163 27.9072 43.0662C27.9072 43.6072 27.7923 44.0862 27.5626 44.503C27.3416 44.911 27.0368 45.2303 26.6479 45.461Z" fill="#005b49"/>
<path d="M30.783 39.5804V46.5652H31.7242V42.9997C31.7242 42.1748 31.9319 41.5406 32.3472 41.0971C32.7625 40.6448 33.337 40.4186 34.0704 40.4186C34.1058 40.4186 34.1411 40.423 34.1765 40.4319H34.2825V39.5139C33.6021 39.5139 33.0321 39.6558 32.5726 39.9396C32.1796 40.1748 31.8835 40.504 31.6844 40.9273V39.5804H30.783Z" fill="#005b49"/>
</svg>
